<svg width="349" height="195" viewBox="0 0 349 195" fill="none" xmlns="http://www.w3.org/2000/svg" aria-hidden="true" role="img" class="iconify iconify--logos">
<path d="M290.4 100.164C290.227 99.3453 289.79 98.5738 289.13 97.9223C288.471 97.2709 287.61 96.7607 286.628 96.4397C285.618 96.0815 284.504 95.9382 283.4 96.0243C282.296 96.1104 281.241 96.4228 280.341 96.9297C265.907 103.875 249.135 107.289 232.188 106.731C193.59 106.486 177.371 118.984 177.057 118.984C170.682 122.668 165.498 127.462 161.919 132.984C158.339 138.506 156.462 144.603 156.438 150.79C156.345 155.957 157.563 161.086 160.021 165.885C160.238 166.32 160.294 166.794 160.183 167.253C160.072 167.713 159.798 168.138 159.393 168.482L142.859 182.695C142.27 183.15 141.803 183.692 141.483 184.289C141.164 184.887 141 185.527 141 186.174C141 186.821 141.164 187.462 141.483 188.059C141.803 188.656 142.27 189.198 142.859 189.654C143.968 190.474 145.422 190.951 146.949 190.996C148.476 191.042 149.972 190.651 151.157 189.899C162.221 182.205 179.823 159.171 229.171 143.047C229.938 142.796 230.762 142.665 231.595 142.662C232.427 142.659 233.252 142.784 234.023 143.03C234.793 143.276 235.494 143.638 236.085 144.094C236.677 144.551 237.147 145.095 237.469 145.693C237.791 146.292 237.958 146.934 237.962 147.583C237.966 148.232 237.805 148.875 237.49 149.476C237.175 150.077 236.711 150.623 236.125 151.084C235.539 151.545 234.842 151.911 234.074 152.162C214.319 158.449 196.32 167.67 181.08 179.313L179.572 180.538C179.251 180.832 179.021 181.179 178.901 181.553C178.782 181.927 178.774 182.318 178.88 182.695C178.946 183.058 179.116 183.405 179.377 183.711C179.638 184.016 179.984 184.272 180.389 184.459C188.415 188.378 197.698 190.45 207.169 190.438C219.896 190.242 232.361 187.581 243.441 182.695C298.32 159.023 293.291 113.544 290.4 100.164Z" fill="#52CA7B"/>
<path d="M1.65344 30.5396C1.83183 29.0567 2.28295 27.66 2.96453 26.4804C3.6461 25.3009 4.53578 24.3772 5.55013 23.796C6.59366 23.1476 7.7442 22.8882 8.88487 23.044C10.0256 23.1999 11.1157 23.7655 12.0446 24.6833C26.9565 37.2582 44.2843 43.4394 61.7923 42.4296C101.668 41.9859 118.424 64.6123 118.749 64.6123C125.335 71.2836 130.691 79.9634 134.389 89.9608C138.087 99.9583 140.026 110.997 140.051 122.199C140.147 131.553 138.889 140.841 136.349 149.528C136.125 150.317 136.067 151.175 136.181 152.006C136.296 152.838 136.579 153.608 136.998 154.231L154.079 179.963C154.688 180.788 155.171 181.769 155.501 182.85C155.83 183.932 156 185.091 156 186.263C156 187.434 155.83 188.594 155.501 189.675C155.171 190.756 154.688 191.738 154.079 192.563C152.934 194.048 151.432 194.912 149.854 194.994C148.276 195.075 146.73 194.369 145.506 193.006C134.076 179.076 115.891 137.372 64.9097 108.179C64.1165 107.725 63.2656 107.488 62.4055 107.483C61.5455 107.478 60.6931 107.704 59.897 108.149C59.101 108.594 58.3768 109.249 57.766 110.076C57.1552 110.904 56.6696 111.887 56.337 112.971C56.0044 114.054 55.8312 115.217 55.8275 116.392C55.8237 117.567 55.9894 118.732 56.315 119.819C56.6407 120.907 57.1199 121.896 57.7254 122.731C58.3309 123.565 59.0508 124.229 59.844 124.683C80.2533 136.065 98.8479 152.761 114.592 173.84L116.151 176.059C116.483 176.59 116.72 177.219 116.843 177.896C116.967 178.574 116.975 179.281 116.866 179.963C116.797 180.621 116.622 181.249 116.352 181.802C116.082 182.355 115.725 182.818 115.307 183.157C107.015 190.253 97.4246 194.005 87.6404 193.982C74.4917 193.627 61.6141 188.809 50.1672 179.963C-6.52961 137.106 -1.33403 54.7632 1.65344 30.5396Z" fill="#52CA7B"/>
<circle cx="174.5" cy="41.5" r="41.5" fill="#52CA7B"/>
</svg>
